<?xml version="1.0" encoding="utf-8"?>
<!-- Generator: Adobe Illustrator 12.0.0, SVG Export Plug-In . SVG Version: 6.00 Build 51448)  -->
<!DOCTYPE svg PUBLIC "-//W3C//DTD SVG 1.1//EN" "http://www.w3.org/Graphics/SVG/1.1/DTD/svg11.dtd" [
	<!ENTITY ns_svg "http://www.w3.org/2000/svg">
	<!ENTITY ns_xlink "http://www.w3.org/1999/xlink">
]>
<svg  version="1.1" id="Layer_1" xmlns="&ns_svg;" xmlns:xlink="&ns_xlink;" width="631" height="766"
	 viewBox="-160.229 -227.73 631 766" overflow="visible" enable-background="new -160.229 -227.73 631 766" xml:space="preserve">
<g>
	<path fill="#596F87" d="M358.064,155.771l79.139-79.139L313.546-47.022l-79.137,79.138L199.786-2.507l79.139-79.138
		L155.271-205.299L31.618-81.646l79.139,79.138L76.132,32.116L-3.005-47.022L-126.66,76.632l79.138,79.138l-79.138,79.139
		L-3.005,358.563l79.139-79.14l34.623,34.623l-79.139,79.14L155.271,516.84l123.654-123.653l-79.139-79.14l34.623-34.623
		l79.137,79.14L437.2,234.909L358.064,155.771z M313.546,42.009l34.625,34.623l-34.625,34.623l-34.621-34.623L313.546,42.009z
		 M269.032,155.771l-34.623,34.623l-34.623-34.623l34.623-34.624L269.032,155.771z M120.648-81.646l34.623-34.623l34.623,34.623
		l-34.623,34.623L120.648-81.646z M155.271,42.009l34.623,34.623l-34.623,34.623l-34.623-34.623L155.271,42.009z M110.756,155.77
		l-34.623,34.624L41.509,155.77l34.624-34.623L110.756,155.77z M-37.629,76.632l34.624-34.623l34.623,34.623l-34.623,34.623
		L-37.629,76.632z M-3.005,269.531l-34.624-34.623l34.624-34.623l34.623,34.623L-3.005,269.531z M189.894,393.186l-34.623,34.621
		l-34.623-34.621l34.623-34.623L189.894,393.186z M155.271,269.531l-34.623-34.623l34.623-34.623l34.623,34.623L155.271,269.531z
		 M313.546,269.532l-34.621-34.624l34.621-34.623l34.625,34.623L313.546,269.532z"/>
	<path d="M199.786-2.507l34.623,34.624l79.139-79.139L437.202,76.632l-79.139,79.139l79.139,79.138L313.546,358.563l-79.137-79.14
		l-34.623,34.623l79.139,79.14L155.271,516.84L31.618,393.186l79.139-79.14l-34.623-34.623l-79.139,79.14L-126.66,234.908
		l79.138-79.139l-79.138-79.138L-3.005-47.022l79.139,79.139l34.623-34.624L31.618-81.646l123.653-123.653L278.925-81.646
		L199.786-2.507z M61.294-81.646l143.44,143.439l14.838-14.839L90.971-81.646l64.3-64.3l64.301,64.3l-49.461,49.462l14.838,14.838
		l64.299-64.3l-93.977-93.977L61.294-81.646z M155.271-116.269l-34.623,34.623l34.623,34.623l34.623-34.623L155.271-116.269z
		 M170.111,126.093l14.838,14.839l128.6-128.6l64.301,64.3l-49.461,49.462l14.838,14.838l64.301-64.3l-93.979-93.978
		L170.111,126.093z M-96.983,76.632L46.456,220.069l14.838-14.838l-128.6-128.601l64.3-64.3l49.461,49.461l14.838-14.839l-64.3-64.3
		L-96.983,76.632z M125.594,12.332L11.833,126.093l14.838,14.838L140.433,27.17L125.594,12.332z M278.925,76.632l34.621,34.623
		l34.625-34.623l-34.625-34.623L278.925,76.632z M-37.629,76.632l34.624,34.623l34.623-34.623L-3.005,42.009L-37.629,76.632z
		 M120.648,76.632l34.623,34.623l34.623-34.623l-34.623-34.623L120.648,76.632z M90.971,106.309l113.763,113.76l14.838-14.838
		L105.81,91.47L90.971,106.309z M249.247,106.309l128.602,128.6l-64.301,64.301l-49.461-49.462l-14.84,14.838l64.301,64.302
		l93.979-93.979L264.087,91.47L249.247,106.309z M41.509,155.77l34.624,34.624l34.623-34.624l-34.623-34.623L41.509,155.77z
		 M234.409,121.147l-34.623,34.624l34.623,34.623l34.623-34.623L234.409,121.147z M-96.983,234.908l93.978,93.977l143.438-143.437
		l-14.839-14.839l-128.6,128.6l-64.3-64.3l49.462-49.462l-14.838-14.838L-96.983,234.908z M170.111,284.369l14.838,14.839
		L298.71,185.446l-14.84-14.838L170.111,284.369z M-37.629,234.908l34.624,34.623l34.623-34.623l-34.623-34.623L-37.629,234.908z
		 M120.648,234.908l34.623,34.623l34.623-34.623l-34.623-34.623L120.648,234.908z M313.546,269.532l34.625-34.624l-34.625-34.623
		l-34.621,34.623L313.546,269.532z M90.971,264.585l128.601,128.602l-64.301,64.299l-64.3-64.299l49.462-49.463l-14.839-14.839
		l-64.3,64.302l93.977,93.978l93.977-93.978L105.81,249.747L90.971,264.585z M155.271,427.807l34.623-34.621l-34.623-34.623
		l-34.623,34.623L155.271,427.807z"/>
	<path d="M254.194,91.47"/>
</g>
</svg>
