<?xml version="1.0" encoding="UTF-8" standalone="no"?>
<!-- Created with Inkscape (http://www.inkscape.org/) -->

<svg
   xmlns:svg="http://www.w3.org/2000/svg"
   xmlns="http://www.w3.org/2000/svg"
   version="1.1"
   width="32"
   height="32"
   id="svg2">
  <desc
     id="desc4">Created with Raphaël</desc>
  <defs
     id="defs6" />
  <path
     d="M 24.875,1.375 H 8 c -1.033,0 -1.874,0.787 -1.979,1.792 h 1.604 c 1.102,0 2,0.898 2,2 0,1.102 -0.898,2 -2,2 H 6 v 0.999 h 1.625 c 1.104,0 2.002,0.898 2.002,2.002 0,1.104 -0.898,2.001 -2.002,2.001 H 6 v 0.997 h 1.625 c 1.102,0 2,0.898 2,2 0,1.104 -0.898,2.004 -2,2.004 H 6 v 0.994 h 1.625 c 1.102,0 2,0.898 2,2.002 0,1.104 -0.898,2.002 -2,2.002 H 6 v 0.997 h 1.624 c 1.104,0 2.002,0.897 2.002,2.001 0,1.104 -0.898,2.002 -2.002,2.002 H 6.004 C 6.027,28.252 6.91,29.125 8,29.125 h 16.875 c 1.104,0 2,-0.896 2,-2 V 3.375 c 0,-1.104 -0.896,-2 -2,-2 z m 0.375,7 c 0,0.552 -0.447,1 -1,1 H 14 c -0.553,0 -1,-0.448 -1,-1 V 4 c 0,-0.552 0.447,-1 1,-1 h 10.25 c 0.553,0 1,0.448 1,1 V 8.375 z M 8.625,25.166 c 0,-0.554 -0.449,-1.001 -1,-1.001 h -3.25 c -0.552,0 -1,0.447 -1,1.001 0,0.552 0.449,1 1,1 h 3.25 c 0.551,0 1,-0.448 1,-1 z m -4.25,-19 h 3.251 c 0.551,0 0.999,-0.448 0.999,-0.999 0,-0.555 -0.448,-1 -0.999,-1 H 4.375 c -0.553,0 -1,0.445 -1,1 -10e-4,0.551 0.447,0.999 1,0.999 z m 0,5.001 h 3.25 c 0.553,0 1,-0.448 1,-1 0,-0.552 -0.448,-1 -1,-1 h -3.25 c -0.553,0 -1,0.448 -1,1 0,0.552 0.447,1 1,1 z m 0,5 h 3.25 c 0.551,0 1,-0.448 1,-1.001 0,-0.553 -0.448,-0.999 -1,-0.999 h -3.25 c -0.553,0 -1.001,0.446 -1.001,0.999 0,0.553 0.448,1.001 1.001,1.001 z m -1,3.998 c 0,0.553 0.446,1.002 1,1.002 h 3.25 c 0.551,0 1,-0.449 1,-1.002 0,-0.552 -0.448,-1 -1,-1 h -3.25 c -0.554,0 -1,0.448 -1,1 z"
     id="path43"
     style="fill:#333333;fill-opacity:1;stroke:none" />
  <rect
     width="32"
     height="32"
     rx="0"
     ry="0"
     x="0"
     y="0"
     id="rect45"
     style="opacity:0;fill:#000000;stroke:#000000" />
</svg>
