<?xml version="1.0" encoding="UTF-8" standalone="no"?>
<!-- Created with Inkscape (http://www.inkscape.org/) -->

<svg
   xmlns:svg="http://www.w3.org/2000/svg"
   xmlns="http://www.w3.org/2000/svg"
   version="1.1"
   width="32"
   height="32"
   id="svg2">
  <defs
     id="defs4">
    <linearGradient
       x1="0"
       y1="1"
       x2="6.1232343e-17"
       y2="0"
       id="r-f4bc67f6f0284e46844b01bcddb54b09">
      <stop
         id="stop7"
         style="stop-color:#0050af;stop-opacity:1"
         offset="0" />
      <stop
         id="stop9"
         style="stop-color:#002c62;stop-opacity:1"
         offset="1" />
    </linearGradient>
    <linearGradient
       x1="0"
       y1="1"
       x2="6.1232343e-17"
       y2="0"
       id="r-9313d8161c9640988573a83878c3c131">
      <stop
         id="stop12"
         style="stop-color:#0050af;stop-opacity:1"
         offset="0" />
      <stop
         id="stop14"
         style="stop-color:#002c62;stop-opacity:1"
         offset="1" />
    </linearGradient>
    <linearGradient
       x1="0"
       y1="1"
       x2="6.1232343e-17"
       y2="0"
       id="r-b91807823e6642258510aeff076255af">
      <stop
         id="stop17"
         style="stop-color:#0050af;stop-opacity:1"
         offset="0" />
      <stop
         id="stop19"
         style="stop-color:#002c62;stop-opacity:1"
         offset="1" />
    </linearGradient>
    <linearGradient
       x1="0"
       y1="1"
       x2="6.1232343e-17"
       y2="0"
       id="r-9ce6da3cbd384a948e0992f3dc5f3d6d">
      <stop
         id="stop22"
         style="stop-color:#0050af;stop-opacity:1"
         offset="0" />
      <stop
         id="stop24"
         style="stop-color:#002c62;stop-opacity:1"
         offset="1" />
    </linearGradient>
  </defs>
  <path
     d="M 24.25,10.25 H 20.5 v -1.5 h -9.375 v 1.5 h -3.75 c -1.104,0 -2,0.896 -2,2 v 10.375 c 0,1.104 0.896,2 2,2 H 24.25 c 1.104,0 2,-0.896 2,-2 V 12.25 c 0,-1.104 -0.896,-2 -2,-2 z m -8.438,13.249 c -3.342,0 -6.06,-2.719 -6.06,-6.061 0,-3.342 2.718,-6.062 6.06,-6.062 3.342,0 6.062,2.72 6.062,6.062 0,3.342 -2.721,6.061 -6.062,6.061 z m 0,-10.124 c -2.244,0 -4.062,1.819 -4.062,4.062 0,2.244 1.819,4.062 4.062,4.062 2.244,0 4.062,-1.818 4.062,-4.062 0.001,-2.243 -1.817,-4.062 -4.062,-4.062 z"
     id="path26"
     style="fill:#333333;fill-opacity:1;stroke:none" />
  <rect
     width="32"
     height="32"
     rx="0"
     ry="0"
     x="0"
     y="0"
     id="rect28"
     style="opacity:0;fill:#000000;stroke:#000000" />
</svg>
