<?xml version="1.0" encoding="UTF-8" standalone="no"?>
<!-- Created with Inkscape (http://www.inkscape.org/) -->

<svg
   xmlns:svg="http://www.w3.org/2000/svg"
   xmlns="http://www.w3.org/2000/svg"
   version="1.1"
   width="32"
   height="32"
   id="svg2">
  <defs
     id="defs4">
    <linearGradient
       x1="0"
       y1="1"
       x2="6.1232343e-17"
       y2="0"
       id="r-26f0f8b9d1aa433f94386a5d6a7ad3ed">
      <stop
         id="stop7"
         style="stop-color:#0050af;stop-opacity:1"
         offset="0" />
      <stop
         id="stop9"
         style="stop-color:#002c62;stop-opacity:1"
         offset="1" />
    </linearGradient>
    <linearGradient
       x1="0"
       y1="1"
       x2="6.1232343e-17"
       y2="0"
       id="r-c3cc04d39abf44b6830e009ee62b5203">
      <stop
         id="stop12"
         style="stop-color:#0050af;stop-opacity:1"
         offset="0" />
      <stop
         id="stop14"
         style="stop-color:#002c62;stop-opacity:1"
         offset="1" />
    </linearGradient>
  </defs>
  <path
     d="m 9.089,13.133 c 0.346,0.326 0.69,0.75 1.043,1.228 0.051,-0.073 0.099,-0.144 0.15,-0.219 0.511,-0.75 1.09,-1.599 1.739,-2.421 0.103,-0.133 0.211,-0.245 0.316,-0.371 C 11.85,10.778 11.313,10.23 10.665,9.758 9.663,9.02 8.354,8.506 6.899,8.517 H 0.593 v 3.604 H 6.9 c 0.877,0.017 1.433,0.301 2.189,1.012 z m 13.664,2.949 v 2.256 c -0.922,-0.002 -2.45,-0.002 -2.883,-0.002 -1.28,-0.03 -2.12,-0.438 -2.994,-1.148 -0.378,-0.311 -0.74,-0.7 -1.097,-1.133 -0.268,0.376 -0.538,0.764 -0.813,1.168 -0.334,0.488 -0.678,0.99 -1.037,1.484 -0.089,0.121 -0.189,0.246 -0.283,0.369 1.455,1.528 3.473,2.846 6.202,2.862 h 2.905 v 2.256 l 3.515,-2.026 3.521,-2.03 -3.521,-2.028 -3.515,-2.028 z M 16.876,13.27 c 0.874,-0.712 1.714,-1.118 2.994,-1.148 0.433,0 1.961,0 2.883,-0.002 v 2.256 L 26.268,12.35 29.789,10.322 26.268,8.293 22.753,6.266 V 8.52 h -2.905 c -3.293,0.02 -5.563,1.93 -7.041,3.822 -1.506,1.912 -2.598,3.929 -3.718,4.982 C 8.332,18.033 7.777,18.32 6.9,18.336 H 0.593 V 21.94 H 6.9 c 1.455,0.011 2.764,-0.502 3.766,-1.242 1.012,-0.735 1.772,-1.651 2.454,-2.573 1.341,-1.858 2.454,-3.785 3.756,-4.855 z"
     id="path16"
     style="fill:#333333;fill-opacity:1;stroke:none" />
  <rect
     width="32"
     height="32"
     rx="0"
     ry="0"
     x="0"
     y="0"
     id="rect18"
     style="opacity:0;fill:#000000;stroke:#000000" />
</svg>
