<?xml version="1.0" encoding="UTF-8" standalone="no"?>
<svg
   xmlns:dc="http://purl.org/dc/elements/1.1/"
   xmlns:cc="http://creativecommons.org/ns#"
   xmlns:rdf="http://www.w3.org/1999/02/22-rdf-syntax-ns#"
   xmlns:svg="http://www.w3.org/2000/svg"
   xmlns="http://www.w3.org/2000/svg"
   xmlns:sodipodi="http://sodipodi.sourceforge.net/DTD/sodipodi-0.dtd"
   xmlns:inkscape="http://www.inkscape.org/namespaces/inkscape"
   version="1.1"
   id="body"
   width="16"
   height="16"
   viewBox="0 0 0.022222222 0.022222222"
   preserveAspectRatio="none"
   inkscape:version="0.47 r22583"
   sodipodi:docname="integral.svg">
  <metadata
     id="metadata15">
    <rdf:RDF>
      <cc:Work
         rdf:about="">
        <dc:format>image/svg+xml</dc:format>
        <dc:type
           rdf:resource="http://purl.org/dc/dcmitype/StillImage" />
        <dc:title>SVG drawing</dc:title>
      </cc:Work>
    </rdf:RDF>
  </metadata>
  <defs
     id="defs13">
    <inkscape:perspective
       sodipodi:type="inkscape:persp3d"
       inkscape:vp_x="0 : 360 : 1"
       inkscape:vp_y="0 : 1000 : 0"
       inkscape:vp_z="720 : 360 : 1"
       inkscape:persp3d-origin="360 : 240 : 1"
       id="perspective17" />
  </defs>
  <sodipodi:namedview
     pagecolor="#ffffff"
     bordercolor="#666666"
     borderopacity="1"
     objecttolerance="10"
     gridtolerance="10"
     guidetolerance="10"
     inkscape:pageopacity="0"
     inkscape:pageshadow="2"
     inkscape:window-width="1150"
     inkscape:window-height="898"
     id="namedview11"
     showgrid="false"
     inkscape:zoom="5.6568544"
     inkscape:cx="30.907198"
     inkscape:cy="24.048558"
     inkscape:window-x="0"
     inkscape:window-y="0"
     inkscape:window-maximized="0"
     inkscape:current-layer="body" />
  <title
     id="title3">SVG drawing</title>
  <desc
     id="desc5">This was produced by version 4.4 of GNU libplot, a free library for exporting 2-D vector graphics.</desc>
  <g
     id="content"
     transform="matrix(3.5030646e-4,0,0,-3.7681866e-4,-0.15443146,0.16874566)"
     xml:space="preserve"
     stroke-miterlimit="10.433"
     font-style="normal"
     font-variant="normal"
     font-weight="normal"
     font-stretch="normal"
     font-size-adjust="none"
     letter-spacing="normal"
     word-spacing="normal"
     style="font-style:normal;font-variant:normal;font-weight:normal;font-stretch:normal;letter-spacing:normal;word-spacing:normal;text-anchor:start;fill:none;stroke:#000000;stroke-width:4.7784214;stroke-linecap:butt;stroke-linejoin:miter;stroke-miterlimit:10.43299961;stroke-opacity:1;stroke-dasharray:none;stroke-dashoffset:0">

<path
   d="m 469.55,402.16 -0.03,-0.37 -0.03,-0.37 -0.07,-0.72 -0.08,-0.68 -0.09,-0.65 -0.09,-0.61 -0.09,-0.59 -0.11,-0.55 -0.11,-0.53 -0.12,-0.49 -0.12,-0.47 -0.13,-0.44 -0.14,-0.41 -0.14,-0.38 -0.15,-0.36 -0.16,-0.34 -0.16,-0.3 -0.17,-0.29 -0.17,-0.26 -0.18,-0.24 -0.19,-0.22 -0.2,-0.19 -0.2,-0.18 -0.2,-0.15 -0.22,-0.14 -0.22,-0.12 -0.22,-0.1 -0.24,-0.08 -0.23,-0.06 -0.25,-0.05 -0.25,-0.04 -0.26,-0.02 -0.26,-0.01 c -0.65,0 -2.14,0.15 -3.19,1.05 1.45,0.2 1.85,1.34 1.85,2.04 0,1.45 -1.1,2.09 -2.05,2.09 -0.99,0 -2.09,-0.64 -2.09,-2.14 0,-2.39 2.49,-4.13 5.48,-4.13 4.73,0 7.12,4.33 8.22,8.82 0.65,2.59 2.44,17.08 2.84,22.61 l 0.94,12.4 c 0.7,9.17 2.39,10.41 4.64,10.41 0.5,0 2.04,-0.1 3.13,-1.04 -1.44,-0.2 -1.84,-1.35 -1.84,-2.04 0,-1.45 1.1,-2.1 2.04,-2.1 1,0 2.1,0.65 2.1,2.15 0,2.39 -2.5,4.13 -5.48,4.13 -4.74,0 -6.68,-4.83 -7.52,-8.62 -0.6,-2.74 -2.39,-16.79 -2.84,-22.81 z"
   id="path9"
   style="fill:#000000;stroke-width:0" />

</g></svg>
