<?xml version="1.0" encoding="UTF-8" standalone="no"?>
<!-- Created with Inkscape (http://www.inkscape.org/) -->

<svg
   xmlns:dc="http://purl.org/dc/elements/1.1/"
   xmlns:cc="http://creativecommons.org/ns#"
   xmlns:rdf="http://www.w3.org/1999/02/22-rdf-syntax-ns#"
   xmlns:svg="http://www.w3.org/2000/svg"
   xmlns="http://www.w3.org/2000/svg"
   xmlns:sodipodi="http://sodipodi.sourceforge.net/DTD/sodipodi-0.dtd"
   xmlns:inkscape="http://www.inkscape.org/namespaces/inkscape"
   width="16"
   height="16"
   id="svg2"
   version="1.1"
   inkscape:version="0.47 r22583"
   sodipodi:docname="neg.svg">
  <sodipodi:namedview
     id="base"
     pagecolor="#ffffff"
     bordercolor="#666666"
     borderopacity="1.0"
     inkscape:pageopacity="0.0"
     inkscape:pageshadow="2"
     inkscape:zoom="5.6568542"
     inkscape:cx="16.630552"
     inkscape:cy="10.615149"
     inkscape:document-units="px"
     inkscape:current-layer="g5158"
     showgrid="false"
     inkscape:window-width="1150"
     inkscape:window-height="898"
     inkscape:window-x="0"
     inkscape:window-y="0"
     inkscape:window-maximized="0" />
  <defs
     id="defs4">
    <inkscape:perspective
       sodipodi:type="inkscape:persp3d"
       inkscape:vp_x="0 : 526.18109 : 1"
       inkscape:vp_y="0 : 1000 : 0"
       inkscape:vp_z="744.09448 : 526.18109 : 1"
       inkscape:persp3d-origin="372.04724 : 350.78739 : 1"
       id="perspective10" />
  </defs>
  <metadata
     id="metadata7">
    <rdf:RDF>
      <cc:Work
         rdf:about="">
        <dc:format>image/svg+xml</dc:format>
        <dc:type
           rdf:resource="http://purl.org/dc/dcmitype/StillImage" />
        <dc:title />
      </cc:Work>
    </rdf:RDF>
  </metadata>
  <g
     transform="translate(0,-1036.3622)"
     inkscape:label="Layer 1"
     inkscape:groupmode="layer"
     id="layer1">
    <g
       transform="translate(-191.42857,-148.57143)"
       id="g2822">
      <g
         style="font-style:normal;font-variant:normal;font-weight:normal;font-stretch:normal;letter-spacing:normal;word-spacing:normal;text-anchor:start;fill:none;stroke:#000000;stroke-linecap:butt;stroke-linejoin:miter;stroke-miterlimit:10.43299961;stroke-opacity:1;stroke-dasharray:none;stroke-dashoffset:0"
         id="content"
         transform="matrix(1.0629921,0,0,-1.0629921,-186.02362,789.27165)"
         xml:space="preserve"
         stroke-miterlimit="10.433"
         font-style="normal"
         font-variant="normal"
         font-weight="normal"
         font-stretch="normal"
         font-size-adjust="none"
         letter-spacing="normal"
         word-spacing="normal" />    </g>
  </g>
  <g
     id="g2951"
     transform="matrix(8.7455118,0,0,8.7455118,-207.16296,-521.1336)" />
  <g
     id="g5156"
     transform="matrix(5.6392136,0,0,5.6392136,-73.869409,-154.23542)">
    <g
       word-spacing="normal"
       letter-spacing="normal"
       font-size-adjust="none"
       font-stretch="normal"
       font-weight="normal"
       font-variant="normal"
       font-style="normal"
       stroke-miterlimit="10.433"
       xml:space="preserve"
       transform="matrix(0.04571429,0,0,-0.04571429,-8,48)"
       id="g5158"
       style="font-style:normal;font-variant:normal;font-weight:normal;font-stretch:normal;letter-spacing:normal;word-spacing:normal;text-anchor:start;fill:none;stroke:#000000;stroke-width:0.17732972;stroke-linecap:butt;stroke-linejoin:miter;stroke-miterlimit:10.43299961;stroke-opacity:1;stroke-dasharray:none;stroke-dashoffset:0"><path
         id="path5160"
         d="m 485.02641,420.00898 0.11964,0 0.11965,0 0.11226,0 0.0599,0.0121 0.0599,0 0.0524,0.0121 0.0599,0.0121 0.0524,0.0121 0.0524,0.0121 0.0524,0.0121 0.0524,0.0242 0.0449,0.0242 0.0524,0.0242 0.0449,0.0364 0.0375,0.0242 0.0448,0.0485 0.0373,0.0364 0.0373,0.0485 0.0375,0.0485 0.0299,0.0606 0.0299,0.0606 0.007,0.0242 0.0149,0.0364 0.0149,0.0364 0.007,0.0364 0.0149,0.0364 0.007,0.0485 0.007,0.0364 0.007,0.0364 0.007,0.0485 0.007,0.0485 0,0.0485 0.007,0.0485 0,0.0485 0.007,0.0485 0,0.0606 0,0.0485 c 0,1.21224 -0.6732,1.21224 -1.30151,1.21224 l -20.15845,0 c -0.63579,0 -1.30899,0 -1.30899,-1.21224 0,-1.20011 0.6732,-1.20011 1.30899,-1.20011 z"
         style="fill:#000000;stroke-width:0" /><path
         id="path5162"
         d="m 510.65756,424.34879 0.0364,0.15759 0.0364,0.18184 0.0606,0.20608 0.0485,0.2182 0.0727,0.23033 0.0727,0.25457 0.0727,0.25457 0.0849,0.27881 0.097,0.27882 0.1091,0.29094 0.12123,0.30306 0.12122,0.29093 0.13335,0.30306 0.14546,0.30306 0.1576,0.30306 0.16971,0.30306 0.18183,0.29094 0.18184,0.29094 0.20608,0.27881 0.2182,0.2667 0.21821,0.26669 0.24245,0.24245 0.25457,0.23032 0.26669,0.2182 0.27881,0.19396 0.30306,0.16972 0.14547,0.0849 0.15759,0.0727 0.15759,0.0606 0.16972,0.0606 0.16971,0.0606 0.16971,0.0485 0.16972,0.0364 0.18183,0.0364 0.18184,0.0242 0.19396,0.0242 0.19396,0.0121 0.19395,0 c 0.30306,0 1.75775,0 3.01848,-0.78796 -1.69713,-0.30306 -2.89725,-1.80623 -2.89725,-3.2488 0,-0.96979 0.66673,-2.12142 2.29113,-2.12142 1.33346,0 3.26092,1.09102 3.26092,3.50338 0,3.13969 -3.56398,3.98826 -5.61266,3.98826 -3.50337,0 -5.62479,-3.20031 -6.34001,-4.59438 -1.5153,3.98826 -4.77623,4.59438 -6.52185,4.59438 -6.2794,0 -9.72216,-7.7947 -9.72216,-9.29787 0,-0.60612 0.60612,-0.60612 0.72734,-0.60612 0.47278,0 0.65461,0.12122 0.77584,0.65461 2.0608,6.41274 6.03695,7.91592 8.09775,7.91592 1.15163,0 3.26093,-0.54551 3.26093,-4.03676 0,-1.87897 -1.03041,-5.92785 -3.26093,-14.37715 -0.96979,-3.74582 -3.07908,-6.2794 -5.73389,-6.2794 -0.36367,0 -1.75774,0 -3.01847,0.78795 1.50317,0.30306 2.83664,1.56379 2.83664,3.26093 0,1.6244 -1.33347,2.10929 -2.24265,2.10929 -1.80623,0 -3.30941,-1.57591 -3.30941,-3.50337 0,-2.77603 3.00635,-3.98827 5.67328,-3.98827 3.97615,0 6.15818,4.23072 6.34001,4.59439 0.72735,-2.24264 2.89725,-4.59439 6.52185,-4.59439 6.21879,0 9.66155,7.7947 9.66155,9.29788 0,0.60612 -0.54551,0.60612 -0.72735,0.60612 -0.54551,0 -0.66673,-0.24245 -0.78795,-0.66673 -1.98808,-6.46124 -6.09757,-7.9038 -8.02503,-7.9038 -2.36386,0 -3.32153,1.92746 -3.32153,3.98826 0,1.32134 0.35155,2.65481 1.0304,5.30961 z"
         style="fill:#000000;stroke-width:0" /></g>  </g>
</svg>
