<?xml version="1.0" encoding="UTF-8" standalone="no"?>
<svg
   xmlns:dc="http://purl.org/dc/elements/1.1/"
   xmlns:cc="http://creativecommons.org/ns#"
   xmlns:rdf="http://www.w3.org/1999/02/22-rdf-syntax-ns#"
   xmlns:svg="http://www.w3.org/2000/svg"
   xmlns="http://www.w3.org/2000/svg"
   xmlns:sodipodi="http://sodipodi.sourceforge.net/DTD/sodipodi-0.dtd"
   xmlns:inkscape="http://www.inkscape.org/namespaces/inkscape"
   version="1.1"
   id="body"
   width="16"
   height="16"
   viewBox="0 0 0.022222222 0.022222222"
   preserveAspectRatio="none"
   inkscape:version="0.47 r22583"
   sodipodi:docname="pow.svg">
  <metadata
     id="metadata17">
    <rdf:RDF>
      <cc:Work
         rdf:about="">
        <dc:format>image/svg+xml</dc:format>
        <dc:type
           rdf:resource="http://purl.org/dc/dcmitype/StillImage" />
        <dc:title>SVG drawing</dc:title>
      </cc:Work>
    </rdf:RDF>
  </metadata>
  <defs
     id="defs15">
    <inkscape:perspective
       sodipodi:type="inkscape:persp3d"
       inkscape:vp_x="0 : 360 : 1"
       inkscape:vp_y="0 : 1000 : 0"
       inkscape:vp_z="720 : 360 : 1"
       inkscape:persp3d-origin="360 : 240 : 1"
       id="perspective19" />
  </defs>
  <sodipodi:namedview
     pagecolor="#ffffff"
     bordercolor="#666666"
     borderopacity="1"
     objecttolerance="10"
     gridtolerance="10"
     guidetolerance="10"
     inkscape:pageopacity="0"
     inkscape:pageshadow="2"
     inkscape:window-width="588"
     inkscape:window-height="898"
     id="namedview13"
     showgrid="false"
     inkscape:zoom="3.7083822"
     inkscape:cx="14.7418"
     inkscape:cy="-6.8584819"
     inkscape:window-x="0"
     inkscape:window-y="0"
     inkscape:window-maximized="0"
     inkscape:current-layer="body" />
  <title
     id="title3">SVG drawing</title>
  <desc
     id="desc5">This was produced by version 4.4 of GNU libplot, a free library for exporting 2-D vector graphics.</desc>
  <g
     id="content"
     transform="matrix(4.4916979e-4,0,0,-4.3844486e-4,-0.20471048,0.1963168)"
     xml:space="preserve"
     stroke-miterlimit="10.433"
     font-style="normal"
     font-variant="normal"
     font-weight="normal"
     font-stretch="normal"
     font-size-adjust="none"
     letter-spacing="normal"
     word-spacing="normal"
     style="font-style:normal;font-variant:normal;font-weight:normal;font-stretch:normal;letter-spacing:normal;word-spacing:normal;text-anchor:start;fill:none;stroke:#000000;stroke-width:3.91211843;stroke-linecap:butt;stroke-linejoin:miter;stroke-miterlimit:10.43299961;stroke-opacity:1;stroke-dasharray:none;stroke-dashoffset:0">

<path
   d="m 472.64,421.04 0.03,0.13 0.03,0.15 0.05,0.17 0.04,0.18 0.06,0.19 0.06,0.21 0.06,0.21 0.07,0.23 0.08,0.23 0.09,0.24 0.1,0.25 0.1,0.24 0.11,0.25 0.12,0.25 0.13,0.25 0.14,0.25 0.15,0.24 0.15,0.24 0.17,0.23 0.18,0.22 0.18,0.22 0.2,0.2 0.21,0.19 0.22,0.18 0.23,0.16 0.25,0.14 0.12,0.07 0.13,0.06 0.13,0.05 0.14,0.05 0.14,0.05 0.14,0.04 0.14,0.03 0.15,0.03 0.15,0.02 0.16,0.02 0.16,0.01 0.16,0 c 0.25,0 1.45,0 2.49,-0.65 -1.4,-0.25 -2.39,-1.49 -2.39,-2.68 0,-0.8 0.54,-1.75 1.89,-1.75 1.1,0 2.69,0.9 2.69,2.89 0,2.59 -2.94,3.29 -4.63,3.29 -2.89,0 -4.64,-2.64 -5.23,-3.79 -1.25,3.29 -3.94,3.79 -5.38,3.79 -5.18,0 -8.02,-6.43 -8.02,-7.67 0,-0.5 0.5,-0.5 0.6,-0.5 0.39,0 0.54,0.1 0.64,0.54 1.7,5.29 4.98,6.53 6.68,6.53 0.95,0 2.69,-0.45 2.69,-3.33 0,-1.55 -0.85,-4.89 -2.69,-11.86 -0.8,-3.09 -2.54,-5.18 -4.73,-5.18 -0.3,0 -1.45,0 -2.49,0.65 1.24,0.25 2.34,1.29 2.34,2.69 0,1.34 -1.1,1.74 -1.85,1.74 -1.49,0 -2.73,-1.3 -2.73,-2.89 0,-2.29 2.48,-3.29 4.68,-3.29 3.28,0 5.08,3.49 5.23,3.79 0.6,-1.85 2.39,-3.79 5.38,-3.79 5.13,0 7.97,6.43 7.97,7.67 0,0.5 -0.45,0.5 -0.6,0.5 -0.45,0 -0.55,-0.2 -0.65,-0.55 -1.64,-5.33 -5.03,-6.52 -6.62,-6.52 -1.95,0 -2.74,1.59 -2.74,3.29 0,1.09 0.29,2.19 0.85,4.38 z"
   id="path9"
   style="fill:#000000;stroke-width:0" />

<path
   d="m 503.39,437.14 0,0.03 0.01,0.02 0.01,0.02 0,0.02 0.01,0.02 0,0.02 0.01,0.04 0.01,0.04 0.01,0.03 0.01,0.03 0.01,0.03 0.01,0.03 0,0.03 0.01,0.02 0,0.03 0.01,0.02 0,0.02 0.01,0.02 0,0.02 0,0.02 0.01,0.02 0,0.02 0,0.02 0,0.03 0,0.03 0.01,0.04 0,0.03 0,0.02 0,0.02 0,0.01 0,0.02 c 0,0.7 -0.56,1.12 -1.15,1.12 -0.39,0 -1.05,-0.17 -1.43,-0.84 -0.11,-0.21 -0.39,-1.32 -0.56,-2.02 l -0.73,-2.9 c -0.21,-0.83 -1.29,-5.23 -1.4,-5.61 -0.03,0 -1.57,-3.03 -4.29,-3.03 -2.37,0 -2.37,2.26 -2.37,2.89 0,1.89 0.8,4.08 1.85,6.77 0.42,1.11 0.59,1.53 0.59,2.12 0,1.68 -1.43,2.97 -3.31,2.97 -3.52,0 -5.09,-4.74 -5.09,-5.34 0,-0.45 0.49,-0.45 0.59,-0.45 0.49,0 0.52,0.17 0.63,0.56 0.87,2.89 2.37,4.25 3.76,4.25 0.6,0 0.88,-0.38 0.88,-1.22 0,-0.8 -0.32,-1.57 -0.49,-2.02 -1.67,-4.26 -2.03,-5.55 -2.03,-7.08 0,-0.59 0,-2.23 1.37,-3.35 1.08,-0.91 2.54,-1.08 3.48,-1.08 1.4,0 2.65,0.53 3.8,1.57 -0.45,-1.92 -0.83,-3.38 -2.3,-5.13 -0.94,-1.07 -2.33,-2.23 -4.18,-2.23 -0.25,0 -1.88,0 -2.62,1.16 1.88,0.2 1.88,1.88 1.88,1.91 0,1.12 -1,1.33 -1.36,1.33 -0.87,0 -2.01,-0.7 -2.01,-2.3 0,-1.78 1.67,-3.07 4.14,-3.07 3.52,0 7.81,2.72 8.89,7.07 z"
   id="path11"
   style="fill:#000000;stroke-width:0" />

</g></svg>
